<mxfile host="app.diagrams.net" agent="Mozilla/5.0 (Windows NT 10.0; Win64; x64) AppleWebKit/537.36 (KHTML, like Gecko) Chrome/133.0.0.0 Safari/537.36" version="26.0.16">
  <diagram name="Page-1" id="n7m8A8zXPE5cui0VG-qN">
    <mxGraphModel dx="1687" dy="868" grid="1" gridSize="10" guides="1" tooltips="1" connect="1" arrows="1" fold="1" page="1" pageScale="1" pageWidth="850" pageHeight="1100" math="0" shadow="0">
      <root>
        <mxCell id="0" />
        <mxCell id="1" parent="0" />
        <mxCell id="dkWwGZ32vrnyqhdIaPeq-43" value="" style="endArrow=classic;html=1;rounded=0;exitX=0.25;exitY=0;exitDx=0;exitDy=0;entryX=0.286;entryY=1.017;entryDx=0;entryDy=0;entryPerimeter=0;" edge="1" parent="1">
          <mxGeometry width="50" height="50" relative="1" as="geometry">
            <mxPoint x="316.90999999999997" y="638" as="sourcePoint" />
            <mxPoint x="316.90999999999997" y="577" as="targetPoint" />
          </mxGeometry>
        </mxCell>
        <mxCell id="dkWwGZ32vrnyqhdIaPeq-44" value="" style="endArrow=classic;html=1;rounded=0;exitX=0.25;exitY=0;exitDx=0;exitDy=0;entryX=0.286;entryY=1.017;entryDx=0;entryDy=0;entryPerimeter=0;" edge="1" parent="1">
          <mxGeometry width="50" height="50" relative="1" as="geometry">
            <mxPoint x="679.41" y="640" as="sourcePoint" />
            <mxPoint x="679.41" y="579" as="targetPoint" />
          </mxGeometry>
        </mxCell>
        <mxCell id="dkWwGZ32vrnyqhdIaPeq-47" value="" style="endArrow=classic;html=1;rounded=0;exitX=0.25;exitY=0;exitDx=0;exitDy=0;entryX=0.286;entryY=1.017;entryDx=0;entryDy=0;entryPerimeter=0;" edge="1" parent="1">
          <mxGeometry width="50" height="50" relative="1" as="geometry">
            <mxPoint x="275" y="470" as="sourcePoint" />
            <mxPoint x="275" y="409" as="targetPoint" />
          </mxGeometry>
        </mxCell>
        <mxCell id="dkWwGZ32vrnyqhdIaPeq-48" value="" style="endArrow=classic;html=1;rounded=0;exitX=0.25;exitY=0;exitDx=0;exitDy=0;entryX=0.286;entryY=1.017;entryDx=0;entryDy=0;entryPerimeter=0;" edge="1" parent="1">
          <mxGeometry width="50" height="50" relative="1" as="geometry">
            <mxPoint x="480" y="470" as="sourcePoint" />
            <mxPoint x="480" y="409" as="targetPoint" />
          </mxGeometry>
        </mxCell>
        <mxCell id="dkWwGZ32vrnyqhdIaPeq-15" value="&lt;b&gt;&lt;font style=&quot;font-size: 15px;&quot;&gt;Account&lt;/font&gt;&lt;/b&gt;" style="text;html=1;align=center;verticalAlign=middle;resizable=0;points=[];autosize=1;strokeColor=none;fillColor=none;" vertex="1" parent="1">
          <mxGeometry x="75" y="860" width="80" height="30" as="geometry" />
        </mxCell>
        <mxCell id="dkWwGZ32vrnyqhdIaPeq-54" value="Tenant A" style="text;html=1;align=center;verticalAlign=middle;resizable=0;points=[];autosize=1;strokeColor=none;fillColor=none;" vertex="1" parent="1">
          <mxGeometry x="282.5" y="928" width="70" height="30" as="geometry" />
        </mxCell>
        <mxCell id="dkWwGZ32vrnyqhdIaPeq-55" value="Tenant B" style="text;html=1;align=center;verticalAlign=middle;resizable=0;points=[];autosize=1;strokeColor=none;fillColor=none;" vertex="1" parent="1">
          <mxGeometry x="645" y="925.5" width="70" height="30" as="geometry" />
        </mxCell>
        <mxCell id="dkWwGZ32vrnyqhdIaPeq-56" value="" style="group" vertex="1" connectable="0" parent="1">
          <mxGeometry x="208" y="820" width="224" height="105.5" as="geometry" />
        </mxCell>
        <mxCell id="dkWwGZ32vrnyqhdIaPeq-14" value="" style="rounded=1;whiteSpace=wrap;html=1;fillColor=none;" vertex="1" parent="dkWwGZ32vrnyqhdIaPeq-56">
          <mxGeometry width="224" height="105.5" as="geometry" />
        </mxCell>
        <mxCell id="dkWwGZ32vrnyqhdIaPeq-21" value="Account2" style="sketch=0;pointerEvents=1;shadow=0;dashed=0;html=1;strokeColor=none;labelPosition=center;verticalLabelPosition=bottom;verticalAlign=top;align=center;fillColor=#505050;shape=mxgraph.mscae.intune.account_portal" vertex="1" parent="dkWwGZ32vrnyqhdIaPeq-56">
          <mxGeometry x="144" y="19.75" width="43" height="50" as="geometry" />
        </mxCell>
        <mxCell id="dkWwGZ32vrnyqhdIaPeq-22" value="Account1" style="sketch=0;pointerEvents=1;shadow=0;dashed=0;html=1;strokeColor=none;labelPosition=center;verticalLabelPosition=bottom;verticalAlign=top;align=center;fillColor=#505050;shape=mxgraph.mscae.intune.account_portal" vertex="1" parent="dkWwGZ32vrnyqhdIaPeq-56">
          <mxGeometry x="34" y="19.75" width="43" height="50" as="geometry" />
        </mxCell>
        <mxCell id="dkWwGZ32vrnyqhdIaPeq-57" value="" style="group" vertex="1" connectable="0" parent="1">
          <mxGeometry x="568" y="820" width="224" height="105.5" as="geometry" />
        </mxCell>
        <mxCell id="dkWwGZ32vrnyqhdIaPeq-58" value="" style="rounded=1;whiteSpace=wrap;html=1;fillColor=none;" vertex="1" parent="dkWwGZ32vrnyqhdIaPeq-57">
          <mxGeometry width="224" height="105.5" as="geometry" />
        </mxCell>
        <mxCell id="dkWwGZ32vrnyqhdIaPeq-59" value="Account2" style="sketch=0;pointerEvents=1;shadow=0;dashed=0;html=1;strokeColor=none;labelPosition=center;verticalLabelPosition=bottom;verticalAlign=top;align=center;fillColor=#505050;shape=mxgraph.mscae.intune.account_portal" vertex="1" parent="dkWwGZ32vrnyqhdIaPeq-57">
          <mxGeometry x="144" y="19.75" width="43" height="50" as="geometry" />
        </mxCell>
        <mxCell id="dkWwGZ32vrnyqhdIaPeq-60" value="Account1" style="sketch=0;pointerEvents=1;shadow=0;dashed=0;html=1;strokeColor=none;labelPosition=center;verticalLabelPosition=bottom;verticalAlign=top;align=center;fillColor=#505050;shape=mxgraph.mscae.intune.account_portal" vertex="1" parent="dkWwGZ32vrnyqhdIaPeq-57">
          <mxGeometry x="34" y="19.75" width="43" height="50" as="geometry" />
        </mxCell>
        <mxCell id="dkWwGZ32vrnyqhdIaPeq-9" value="&lt;b&gt;&lt;font style=&quot;font-size: 15px;&quot;&gt;Role&lt;/font&gt;&lt;/b&gt;&lt;div&gt;Administrator&lt;/div&gt;&lt;div&gt;Operator&lt;/div&gt;&lt;div&gt;Guster&lt;/div&gt;&lt;div&gt;Report&lt;/div&gt;" style="text;html=1;align=center;verticalAlign=middle;resizable=0;points=[];autosize=1;strokeColor=none;fillColor=none;" vertex="1" parent="1">
          <mxGeometry x="60" y="655.5" width="90" height="90" as="geometry" />
        </mxCell>
        <mxCell id="dkWwGZ32vrnyqhdIaPeq-61" value="" style="group" vertex="1" connectable="0" parent="1">
          <mxGeometry x="160" y="638" width="320" height="121" as="geometry" />
        </mxCell>
        <mxCell id="dkWwGZ32vrnyqhdIaPeq-8" value="" style="rounded=1;whiteSpace=wrap;html=1;fillColor=none;shadow=0;glass=0;" vertex="1" parent="dkWwGZ32vrnyqhdIaPeq-61">
          <mxGeometry width="320" height="121" as="geometry" />
        </mxCell>
        <mxCell id="dkWwGZ32vrnyqhdIaPeq-20" value="Administrator" style="sketch=0;pointerEvents=1;shadow=0;dashed=0;html=1;strokeColor=none;labelPosition=center;verticalLabelPosition=bottom;verticalAlign=top;align=center;fillColor=#505050;shape=mxgraph.mscae.intune.groups" vertex="1" parent="dkWwGZ32vrnyqhdIaPeq-61">
          <mxGeometry x="29" y="31" width="50" height="48" as="geometry" />
        </mxCell>
        <mxCell id="dkWwGZ32vrnyqhdIaPeq-29" value="Operator" style="sketch=0;pointerEvents=1;shadow=0;dashed=0;html=1;strokeColor=none;labelPosition=center;verticalLabelPosition=bottom;verticalAlign=top;align=center;fillColor=#505050;shape=mxgraph.mscae.intune.groups" vertex="1" parent="dkWwGZ32vrnyqhdIaPeq-61">
          <mxGeometry x="131" y="31" width="50" height="48" as="geometry" />
        </mxCell>
        <mxCell id="dkWwGZ32vrnyqhdIaPeq-30" value="Guster" style="sketch=0;pointerEvents=1;shadow=0;dashed=0;html=1;strokeColor=none;labelPosition=center;verticalLabelPosition=bottom;verticalAlign=top;align=center;fillColor=#505050;shape=mxgraph.mscae.intune.groups" vertex="1" parent="dkWwGZ32vrnyqhdIaPeq-61">
          <mxGeometry x="240" y="31" width="50" height="48" as="geometry" />
        </mxCell>
        <mxCell id="dkWwGZ32vrnyqhdIaPeq-62" value="" style="group" vertex="1" connectable="0" parent="1">
          <mxGeometry x="520" y="639" width="320" height="121" as="geometry" />
        </mxCell>
        <mxCell id="dkWwGZ32vrnyqhdIaPeq-63" value="" style="rounded=1;whiteSpace=wrap;html=1;fillColor=none;shadow=0;glass=0;" vertex="1" parent="dkWwGZ32vrnyqhdIaPeq-62">
          <mxGeometry width="320" height="121" as="geometry" />
        </mxCell>
        <mxCell id="dkWwGZ32vrnyqhdIaPeq-64" value="Administrator" style="sketch=0;pointerEvents=1;shadow=0;dashed=0;html=1;strokeColor=none;labelPosition=center;verticalLabelPosition=bottom;verticalAlign=top;align=center;fillColor=#505050;shape=mxgraph.mscae.intune.groups" vertex="1" parent="dkWwGZ32vrnyqhdIaPeq-62">
          <mxGeometry x="29" y="31" width="50" height="48" as="geometry" />
        </mxCell>
        <mxCell id="dkWwGZ32vrnyqhdIaPeq-65" value="Operator" style="sketch=0;pointerEvents=1;shadow=0;dashed=0;html=1;strokeColor=none;labelPosition=center;verticalLabelPosition=bottom;verticalAlign=top;align=center;fillColor=#505050;shape=mxgraph.mscae.intune.groups" vertex="1" parent="dkWwGZ32vrnyqhdIaPeq-62">
          <mxGeometry x="131" y="31" width="50" height="48" as="geometry" />
        </mxCell>
        <mxCell id="dkWwGZ32vrnyqhdIaPeq-66" value="Reporter" style="sketch=0;pointerEvents=1;shadow=0;dashed=0;html=1;strokeColor=none;labelPosition=center;verticalLabelPosition=bottom;verticalAlign=top;align=center;fillColor=#505050;shape=mxgraph.mscae.intune.groups" vertex="1" parent="dkWwGZ32vrnyqhdIaPeq-62">
          <mxGeometry x="240" y="31" width="50" height="48" as="geometry" />
        </mxCell>
        <mxCell id="dkWwGZ32vrnyqhdIaPeq-67" value="" style="endArrow=classic;html=1;rounded=0;exitX=0.25;exitY=0;exitDx=0;exitDy=0;entryX=0.286;entryY=1.017;entryDx=0;entryDy=0;entryPerimeter=0;" edge="1" parent="1">
          <mxGeometry width="50" height="50" relative="1" as="geometry">
            <mxPoint x="320" y="822" as="sourcePoint" />
            <mxPoint x="320" y="761" as="targetPoint" />
          </mxGeometry>
        </mxCell>
        <mxCell id="dkWwGZ32vrnyqhdIaPeq-68" value="" style="endArrow=classic;html=1;rounded=0;exitX=0.25;exitY=0;exitDx=0;exitDy=0;entryX=0.286;entryY=1.017;entryDx=0;entryDy=0;entryPerimeter=0;" edge="1" parent="1">
          <mxGeometry width="50" height="50" relative="1" as="geometry">
            <mxPoint x="679.4100000000001" y="820" as="sourcePoint" />
            <mxPoint x="679.4100000000001" y="759" as="targetPoint" />
          </mxGeometry>
        </mxCell>
        <mxCell id="dkWwGZ32vrnyqhdIaPeq-5" value="" style="rounded=1;whiteSpace=wrap;html=1;fillColor=none;" vertex="1" parent="1">
          <mxGeometry x="150" y="470" width="700" height="100" as="geometry" />
        </mxCell>
        <mxCell id="dkWwGZ32vrnyqhdIaPeq-6" value="&lt;span style=&quot;color: rgba(0, 0, 0, 0); font-family: monospace; font-size: 0px; text-align: start;&quot;&gt;%3CmxGraphModel%3E%3Croot%3E%3CmxCell%20id%3D%220%22%2F%3E%3CmxCell%20id%3D%221%22%20parent%3D%220%22%2F%3E%3CmxCell%20id%3D%222%22%20value%3D%22%22%20style%3D%22sketch%3D0%3BoutlineConnect%3D0%3BfontColor%3D%23232F3E%3BgradientColor%3Dnone%3BfillColor%3D%23232F3D%3BstrokeColor%3Dnone%3Bdashed%3D0%3BverticalLabelPosition%3Dbottom%3BverticalAlign%3Dtop%3Balign%3Dcenter%3Bhtml%3D1%3BfontSize%3D12%3BfontStyle%3D0%3Baspect%3Dfixed%3BpointerEvents%3D1%3Bshape%3Dmxgraph.aws4.users%3B%22%20vertex%3D%221%22%20parent%3D%221%22%3E%3CmxGeometry%20x%3D%22347%22%20y%3D%22610%22%20width%3D%2278%22%20height%3D%2278%22%20as%3D%22geometry%22%2F%3E%3C%2FmxCell%3E%3C%2Froot%3E%3C%2FmxGraphModel%3E&lt;/span&gt;&lt;span style=&quot;color: rgba(0, 0, 0, 0); font-family: monospace; font-size: 0px; text-align: start;&quot;&gt;%3CmxGraphModel%3E%3Croot%3E%3CmxCell%20id%3D%220%22%2F%3E%3CmxCell%20id%3D%221%22%20parent%3D%220%22%2F%3E%3CmxCell%20id%3D%222%22%20value%3D%22%22%20style%3D%22sketch%3D0%3BoutlineConnect%3D0%3BfontColor%3D%23232F3E%3BgradientColor%3Dnone%3BfillColor%3D%23232F3D%3BstrokeColor%3Dnone%3Bdashed%3D0%3BverticalLabelPosition%3Dbottom%3BverticalAlign%3Dtop%3Balign%3Dcenter%3Bhtml%3D1%3BfontSize%3D12%3BfontStyle%3D0%3Baspect%3Dfixed%3BpointerEvents%3D1%3Bshape%3Dmxgraph.aws4.users%3B%22%20vertex%3D%221%22%20parent%3D%221%22%3E%3CmxGeometry%20x%3D%22347%22%20y%3D%22610%22%20width%3D%2278%22%20height%3D%2278%22%20as%3D%22geometry%22%2F%3E%3C%2FmxCell%3E%3C%2Froot%3E%3C%2FmxGraphModel%3E&lt;/span&gt;" style="text;html=1;align=center;verticalAlign=middle;resizable=0;points=[];autosize=1;strokeColor=none;fillColor=none;" vertex="1" parent="1">
          <mxGeometry x="130" y="505" width="20" height="30" as="geometry" />
        </mxCell>
        <mxCell id="dkWwGZ32vrnyqhdIaPeq-7" value="&lt;span style=&quot;color: rgba(0, 0, 0, 0.85); font-family: -apple-system, BlinkMacSystemFont, &amp;quot;Segoe UI&amp;quot;, Roboto, &amp;quot;Helvetica Neue&amp;quot;, Arial, &amp;quot;Noto Sans&amp;quot;, sans-serif, &amp;quot;Apple Color Emoji&amp;quot;, &amp;quot;Segoe UI Emoji&amp;quot;, &amp;quot;Segoe UI Symbol&amp;quot;, &amp;quot;Noto Color Emoji&amp;quot;; text-align: right; background-color: rgb(255, 255, 255);&quot;&gt;&lt;b style=&quot;&quot;&gt;&lt;font style=&quot;font-size: 15px;&quot;&gt;Sales Specification&lt;/font&gt;&lt;/b&gt;&lt;/span&gt;" style="text;html=1;align=center;verticalAlign=middle;resizable=0;points=[];autosize=1;strokeColor=none;fillColor=none;" vertex="1" parent="1">
          <mxGeometry x="5" y="505" width="150" height="30" as="geometry" />
        </mxCell>
        <mxCell id="dkWwGZ32vrnyqhdIaPeq-24" value="SS2" style="sketch=0;pointerEvents=1;shadow=0;dashed=0;html=1;strokeColor=none;labelPosition=center;verticalLabelPosition=bottom;verticalAlign=top;align=center;fillColor=#505050;shape=mxgraph.mscae.intune.end_protection" vertex="1" parent="1">
          <mxGeometry x="476" y="485" width="48" height="50" as="geometry" />
        </mxCell>
        <mxCell id="dkWwGZ32vrnyqhdIaPeq-33" value="SS1" style="sketch=0;pointerEvents=1;shadow=0;dashed=0;html=1;strokeColor=none;labelPosition=center;verticalLabelPosition=bottom;verticalAlign=top;align=center;fillColor=#505050;shape=mxgraph.mscae.intune.end_protection" vertex="1" parent="1">
          <mxGeometry x="205" y="485" width="48" height="50" as="geometry" />
        </mxCell>
        <mxCell id="dkWwGZ32vrnyqhdIaPeq-34" value="SS3" style="sketch=0;pointerEvents=1;shadow=0;dashed=0;html=1;strokeColor=none;labelPosition=center;verticalLabelPosition=bottom;verticalAlign=top;align=center;fillColor=#505050;shape=mxgraph.mscae.intune.end_protection" vertex="1" parent="1">
          <mxGeometry x="715" y="485" width="48" height="50" as="geometry" />
        </mxCell>
        <mxCell id="dkWwGZ32vrnyqhdIaPeq-40" value="" style="rounded=1;whiteSpace=wrap;html=1;fillColor=none;" vertex="1" parent="1">
          <mxGeometry x="150" y="304" width="700" height="100" as="geometry" />
        </mxCell>
        <mxCell id="dkWwGZ32vrnyqhdIaPeq-26" value="&lt;b&gt;&lt;font style=&quot;font-size: 15px;&quot;&gt;Scrubbing Object&lt;/font&gt;&lt;/b&gt;&lt;div&gt;&lt;br&gt;&lt;/div&gt;&lt;div&gt;SMG/SMP, etc&lt;/div&gt;" style="text;html=1;align=center;verticalAlign=middle;resizable=0;points=[];autosize=1;strokeColor=none;fillColor=none;" vertex="1" parent="1">
          <mxGeometry y="329" width="150" height="60" as="geometry" />
        </mxCell>
        <mxCell id="dkWwGZ32vrnyqhdIaPeq-28" value="SMG1" style="sketch=0;aspect=fixed;pointerEvents=1;shadow=0;dashed=0;html=1;strokeColor=none;labelPosition=center;verticalLabelPosition=bottom;verticalAlign=top;align=center;fillColor=#000000;shape=mxgraph.azure.server_rack" vertex="1" parent="1">
          <mxGeometry x="250" y="324" width="50" height="50" as="geometry" />
        </mxCell>
        <mxCell id="dkWwGZ32vrnyqhdIaPeq-36" value="SMG2" style="sketch=0;aspect=fixed;pointerEvents=1;shadow=0;dashed=0;html=1;strokeColor=none;labelPosition=center;verticalLabelPosition=bottom;verticalAlign=top;align=center;fillColor=#000000;shape=mxgraph.azure.server_rack" vertex="1" parent="1">
          <mxGeometry x="410" y="324" width="50" height="50" as="geometry" />
        </mxCell>
        <mxCell id="dkWwGZ32vrnyqhdIaPeq-69" value="SMG3" style="sketch=0;aspect=fixed;pointerEvents=1;shadow=0;dashed=0;html=1;strokeColor=none;labelPosition=center;verticalLabelPosition=bottom;verticalAlign=top;align=center;fillColor=#000000;shape=mxgraph.azure.server_rack" vertex="1" parent="1">
          <mxGeometry x="568" y="324" width="50" height="50" as="geometry" />
        </mxCell>
        <mxCell id="dkWwGZ32vrnyqhdIaPeq-70" value="SMG4" style="sketch=0;aspect=fixed;pointerEvents=1;shadow=0;dashed=0;html=1;strokeColor=none;labelPosition=center;verticalLabelPosition=bottom;verticalAlign=top;align=center;fillColor=#000000;shape=mxgraph.azure.server_rack" vertex="1" parent="1">
          <mxGeometry x="730" y="329" width="50" height="50" as="geometry" />
        </mxCell>
        <mxCell id="dkWwGZ32vrnyqhdIaPeq-72" value="" style="endArrow=classic;html=1;rounded=0;exitX=0.25;exitY=0;exitDx=0;exitDy=0;entryX=0.286;entryY=1.017;entryDx=0;entryDy=0;entryPerimeter=0;" edge="1" parent="1">
          <mxGeometry width="50" height="50" relative="1" as="geometry">
            <mxPoint x="730" y="470" as="sourcePoint" />
            <mxPoint x="730" y="409" as="targetPoint" />
          </mxGeometry>
        </mxCell>
      </root>
    </mxGraphModel>
  </diagram>
</mxfile>
